<?xml version='1.0' encoding='utf-8'?>
<!DOCTYPE svg PUBLIC '-//W3C//DTD SVG 1.1//EN' 'http://www.w3.org/Graphics/SVG/1.1/DTD/svg11.dtd'>
<svg version="1.1" xmlns="http://www.w3.org/2000/svg" viewBox="0 0 512 512" xmlns:xlink="http://www.w3.org/1999/xlink" enable-background="new 0 0 512 512" stroke="#fff" fill="#fff">
  <g>
    <g>
      <path d="M179.9,271.6H66.3v85.5h113.6V271.6z M159,336.3H87.1v-43.8H159V336.3z"/>
      <rect width="204.3" x="178.9" y="409.3" height="20.9"/>
      <path d="M453,11H121.1c-26.1,0-48,21.9-48,48v142.8H59c-26.1,0-48,21.9-48,48V453c0,26.1,21.9,48,48,48h342c26.1,0,48-21.9,48-49    V310.2h4.2c26.1,0,48-21.9,48-49V59C501,32.9,479.1,11,453,11z M121.1,31.9H453c14.6,0,27.1,12.5,27.1,27.1v20.9H94V59    C94,44.4,106.5,31.9,121.1,31.9z M428,452c0,14.6-12.5,27.1-27.1,27.1H59c-14.6,0-27.1-12.5-27.1-27.1V249.7    c0-14.6,12.5-27.1,27.1-27.1h342c14.6,0,27.1,12.5,27.1,27.1V452z M453,289.4h-4.2v-39.6c0-26.1-21.9-48-48-48H94V100.7h386.1    v161.6C480.1,276.9,467.6,289.4,453,289.4z"/>
    </g>
  </g>
</svg>
